<svg xmlns="http://www.w3.org/2000/svg" viewBox="0 0 1202 528" role="img" aria-labelledby="title desc">
  <title id="title">Leopard cat constellation companion</title>
  <desc id="desc">Approved geometry master for the side-profile walking leopard cat constellation. The Phase 4.2 runtime derives independent aura, contour, link, node and burst-particle layers from this exact geometry.</desc>
  <defs>
    <path id="cat-silhouette" d="M45 148 L52 117 L86 87 L79 26 L123 65 L125 30 L131 24 L164 59 L179 95 L258 131 L433 138 L643 109 L701 111 L755 122 L796 137 L855 171 L972 284 L1033 327 L1073 342 L1110 345 L1170 321 L1180 330 L1180 342 L1160 364 L1126 377 L1086 379 L1040 369 L970 330 L849 220 L793 188 L799 228 L821 279 L851 314 L891 341 L932 462 L930 489 L921 502 L877 498 L879 486 L901 477 L903 467 L856 381 L832 366 L751 337 L693 303 L691 353 L700 408 L615 500 L566 502 L564 487 L598 475 L646 407 L603 310 L596 279 L425 311 L450 438 L439 488 L428 502 L383 499 L388 483 L415 475 L416 452 L405 420 L357 339 L332 317 L301 311 L150 476 L117 502 L78 503 L69 497 L73 484 L104 476 L123 456 L188 357 L217 298 L204 251 L158 213 L134 203 L59 225 L33 203 L24 179 Z"/>
  </defs>

  <g id="cat-aura" fill="currentColor" opacity=".18">
    <use href="#cat-silhouette"/>
  </g>

  <g id="cat-fragment-head" fill="none" stroke="currentColor" stroke-linecap="round" stroke-linejoin="round">
    <path d="M45 148 L52 117 L86 87 L79 26 L123 65 L125 30 L131 24 L164 59 L179 95 L158 213 L134 203 L59 225 L33 203 L24 179 Z" stroke-width="8" stroke-dasharray="42 19"/>
    <path d="M59 156 L113 132 L159 149" stroke-width="3.5" stroke-dasharray="13 16" opacity=".54"/>
    <circle cx="79" cy="26" r="6.8" fill="currentColor"/><circle cx="131" cy="24" r="6.3" fill="currentColor"/>
    <circle cx="164" cy="59" r="5.4" fill="currentColor"/><circle cx="45" cy="148" r="5.8" fill="currentColor"/>
    <circle cx="179" cy="95" r="5.2" fill="currentColor"/>
  </g>

  <g id="cat-fragment-back" fill="none" stroke="currentColor" stroke-linecap="round" stroke-linejoin="round">
    <path d="M179 95 L258 131 L433 138 L643 109 L701 111 L755 122 L796 137 L855 171" stroke-width="8" stroke-dasharray="58 22"/>
    <path d="M216 137 L425 176 L643 153 L790 177" stroke-width="3.5" stroke-dasharray="12 18" opacity=".48"/>
    <circle cx="258" cy="131" r="5.5" fill="currentColor"/><circle cx="433" cy="138" r="5.1" fill="currentColor"/>
    <circle cx="643" cy="109" r="5.8" fill="currentColor"/><circle cx="755" cy="122" r="4.8" fill="currentColor"/>
    <circle cx="855" cy="171" r="5.4" fill="currentColor"/>
  </g>

  <g id="cat-fragment-tail" fill="none" stroke="currentColor" stroke-linecap="round" stroke-linejoin="round">
    <path d="M855 171 L972 284 L1033 327 L1073 342 L1110 345 L1170 321 L1180 330 L1180 342 L1160 364 L1126 377 L1086 379 L1040 369 L970 330 L849 220" stroke-width="8" stroke-dasharray="46 18"/>
    <path d="M899 211 L1004 306 L1083 343 L1157 341" stroke-width="3.5" stroke-dasharray="11 17" opacity=".5"/>
    <circle cx="972" cy="284" r="5.3" fill="currentColor"/><circle cx="1073" cy="342" r="5.1" fill="currentColor"/>
    <circle cx="1170" cy="321" r="5.7" fill="currentColor"/><circle cx="1126" cy="377" r="5" fill="currentColor"/>
  </g>

  <g id="cat-fragment-foreleg" fill="none" stroke="currentColor" stroke-linecap="round" stroke-linejoin="round">
    <path d="M204 251 L217 298 L188 357 L123 456 L104 476 L73 484 L69 497 L78 503 L117 502 L150 476 L301 311 L332 317" stroke-width="8" stroke-dasharray="43 18"/>
    <path d="M217 298 L264 315 L188 357" stroke-width="3.5" stroke-dasharray="10 15" opacity=".46"/>
    <circle cx="204" cy="251" r="5.2" fill="currentColor"/><circle cx="188" cy="357" r="5.1" fill="currentColor"/>
    <circle cx="123" cy="456" r="5.3" fill="currentColor"/><circle cx="78" cy="503" r="4.9" fill="currentColor"/>
  </g>

  <g id="cat-fragment-midleg" fill="none" stroke="currentColor" stroke-linecap="round" stroke-linejoin="round">
    <path d="M332 317 L357 339 L405 420 L416 452 L415 475 L388 483 L383 499 L428 502 L439 488 L450 438 L425 311 L596 279" stroke-width="8" stroke-dasharray="42 18"/>
    <path d="M357 339 L425 311 L405 420" stroke-width="3.5" stroke-dasharray="10 15" opacity=".46"/>
    <circle cx="332" cy="317" r="5.1" fill="currentColor"/><circle cx="425" cy="311" r="5.4" fill="currentColor"/>
    <circle cx="416" cy="452" r="5.1" fill="currentColor"/><circle cx="428" cy="502" r="4.9" fill="currentColor"/>
  </g>

  <g id="cat-fragment-hindleg" fill="none" stroke="currentColor" stroke-linecap="round" stroke-linejoin="round">
    <path d="M596 279 L603 310 L646 407 L598 475 L564 487 L566 502 L615 500 L700 408 L691 353 L693 303 L751 337 L832 366 L856 381 L903 467 L901 477 L879 486 L877 498 L921 502 L930 489 L932 462 L891 341 L851 314 L821 279 L799 228 L793 188" stroke-width="8" stroke-dasharray="45 20"/>
    <path d="M646 407 L693 303 L751 337 M821 279 L856 381 L903 467" stroke-width="3.5" stroke-dasharray="10 16" opacity=".48"/>
    <circle cx="596" cy="279" r="5.5" fill="currentColor"/><circle cx="646" cy="407" r="5.2" fill="currentColor"/>
    <circle cx="615" cy="500" r="5" fill="currentColor"/><circle cx="751" cy="337" r="5.1" fill="currentColor"/>
    <circle cx="856" cy="381" r="5.2" fill="currentColor"/><circle cx="921" cy="502" r="4.9" fill="currentColor"/>
  </g>
</svg>
